{
    "asset" : {
        "generator" : "Khronos glTF Blender I/O v3.4.50",
        "version" : "2.0"
    },
    "scene" : 0,
    "scenes" : [
        {
            "name" : "Scene",
            "nodes" : [
                19,
                20
            ]
        }
    ],
    "nodes" : [
        {
            "name" : "Bendy",
            "rotation" : [
                0,
                -3.552713678800501e-15,
                0,
                1
            ],
            "scale" : [
                1,
                0.9999999403953552,
                1
            ],
            "translation" : [
                -1.7430387799777236e-08,
                0.11872309446334839,
                -5.053166773905104e-10
            ]
        },
        {
            "children" : [
                0
            ],
            "name" : "end",
            "rotation" : [
                -2.6692541510442425e-08,
                -2.6692541510442425e-08,
                -0.7071068286895752,
                0.7071068286895752
            ],
            "translation" : [
                0.8468920588493347,
                -0.5787690877914429,
                0.13385948538780212
            ]
        },
        {
            "name" : "Bendy.001",
            "translation" : [
                -6.367578464505641e-09,
                0.11872303485870361,
                -6.388802376022795e-09
            ]
        },
        {
            "children" : [
                2
            ],
            "name" : "end.001",
            "rotation" : [
                -1.7280349595694133e-07,
                1.7280349595694133e-07,
                0.7071068286895752,
                0.7071068286895752
            ],
            "translation" : [
                -0.8542317748069763,
                -0.5787692070007324,
                0.13385948538780212
            ]
        },
        {
            "name" : "Bendy.002",
            "scale" : [
                1,
                0.9999999403953552,
                1
            ],
            "translation" : [
                1.4265829406667763e-08,
                0.11872315406799316,
                -1.3430579315354407e-08
            ]
        },
        {
            "children" : [
                4
            ],
            "name" : "end.002",
            "rotation" : [
                -7.549789415861596e-08,
                0,
                -1,
                0
            ],
            "translation" : [
                0.30579674243927,
                -0.9933669567108154,
                0.06446653604507446
            ]
        },
        {
            "name" : "Bendy.003",
            "scale" : [
                1,
                0.9999999403953552,
                1
            ],
            "translation" : [
                1.4265829406667763e-08,
                0.11872315406799316,
                1.3914124963321228e-08
            ]
        },
        {
            "children" : [
                6
            ],
            "name" : "end.003",
            "rotation" : [
                -7.549789415861596e-08,
                0,
                -1,
                0
            ],
            "translation" : [
                -0.30259495973587036,
                -0.9933669567108154,
                0.06446653604507446
            ]
        },
        {
            "name" : "start",
            "rotation" : [
                -2.6692541510442425e-08,
                -2.6692541510442425e-08,
                -0.7071068286895752,
                0.7071068286895752
            ],
            "translation" : [
                1.8451659679412842,
                -0.5787690877914429,
                0.13385948538780212
            ]
        },
        {
            "name" : "start.001",
            "rotation" : [
                -1.7280349595694133e-07,
                1.7280349595694133e-07,
                0.7071068286895752,
                0.7071068286895752
            ],
            "translation" : [
                -1.8525056838989258,
                -0.5787692070007324,
                0.13385948538780212
            ]
        },
        {
            "name" : "start.002",
            "rotation" : [
                -7.549790126404332e-08,
                0,
                -1,
                0
            ],
            "translation" : [
                0.30579674243927,
                -1.9916410446166992,
                0.06446653604507446
            ]
        },
        {
            "name" : "start.003",
            "rotation" : [
                -7.549790126404332e-08,
                0,
                -1,
                0
            ],
            "translation" : [
                -0.30259495973587036,
                -1.9916410446166992,
                0.06446653604507446
            ]
        },
        {
            "name" : "Empty",
            "translation" : [
                0.4852401614189148,
                -0.45595788955688477,
                0.3377944827079773
            ]
        },
        {
            "name" : "Empty.001",
            "translation" : [
                -0.48524031043052673,
                -0.45595788955688477,
                0.3377944827079773
            ]
        },
        {
            "name" : "Empty.002",
            "rotation" : [
                -0.020464107394218445,
                0.018452880904078484,
                -0.12588772177696228,
                0.991661787033081
            ],
            "scale" : [
                0.9999999403953552,
                1,
                1
            ],
            "translation" : [
                -0.04031775891780853,
                -0.6969896554946899,
                0.3377944529056549
            ]
        },
        {
            "mesh" : 1,
            "name" : "Sphere",
            "translation" : [
                -2.905726432800293e-07,
                -0.1405339241027832,
                0.36473196744918823
            ]
        },
        {
            "mesh" : 2,
            "name" : "Sphere.001",
            "translation" : [
                -2.905726432800293e-07,
                -0.1405339241027832,
                0.36473196744918823
            ]
        },
        {
            "children" : [
                1,
                3,
                5,
                7,
                8,
                9,
                10,
                11,
                12,
                13,
                14,
                15,
                16
            ],
            "name" : "Bone",
            "translation" : [
                0,
                0,
                -0.24576592445373535
            ]
        },
        {
            "mesh" : 0,
            "name" : "Cylinder.001",
            "skin" : 0
        },
        {
            "children" : [
                18,
                17
            ],
            "name" : "Armature",
            "translation" : [
                0,
                2.1510508060455322,
                -0.11896603554487228
            ]
        },
        {
            "mesh" : 3,
            "name" : "Plane",
            "scale" : [
                30.180522918701172,
                30.180522918701172,
                30.180522918701172
            ]
        }
    ],
    "materials" : [
        {
            "doubleSided" : true,
            "name" : "arms",
            "pbrMetallicRoughness" : {
                "baseColorFactor" : [
                    0.09296515583992004,
                    0.06223020702600479,
                    0.00934644229710102,
                    1
                ],
                "metallicFactor" : 0,
                "roughnessFactor" : 0.30000001192092896
            }
        },
        {
            "doubleSided" : true,
            "name" : "dark",
            "pbrMetallicRoughness" : {
                "baseColorFactor" : [
                    0.003588917199522257,
                    0.07322438061237335,
                    0,
                    1
                ],
                "metallicFactor" : 0,
                "roughnessFactor" : 0.5
            }
        },
        {
            "doubleSided" : true,
            "name" : "light",
            "pbrMetallicRoughness" : {
                "baseColorFactor" : [
                    0.2860235273838043,
                    0.4870990216732025,
                    0.10470139980316162,
                    1
                ],
                "metallicFactor" : 0,
                "roughnessFactor" : 0.5
            }
        },
        {
            "doubleSided" : true,
            "name" : "pit",
            "pbrMetallicRoughness" : {
                "baseColorFactor" : [
                    0.05470956116914749,
                    0.03379025682806969,
                    0.018563056364655495,
                    1
                ],
                "metallicFactor" : 0,
                "roughnessFactor" : 0.5
            }
        },
        {
            "doubleSided" : true,
            "name" : "Material.001",
            "pbrMetallicRoughness" : {
                "baseColorFactor" : [
                    0.8000000715255737,
                    0.30498307943344116,
                    0.24314729869365692,
                    1
                ],
                "metallicFactor" : 0,
                "roughnessFactor" : 0.5
            }
        }
    ],
    "meshes" : [
        {
            "name" : "Cylinder.001",
            "primitives" : [
                {
                    "attributes" : {
                        "POSITION" : 0,
                        "TEXCOORD_0" : 1,
                        "NORMAL" : 2,
                        "JOINTS_0" : 3,
                        "WEIGHTS_0" : 4
                    },
                    "indices" : 5,
                    "material" : 0
                }
            ]
        },
        {
            "name" : "Sphere.001",
            "primitives" : [
                {
                    "attributes" : {
                        "POSITION" : 7,
                        "TEXCOORD_0" : 8,
                        "NORMAL" : 9
                    },
                    "indices" : 10,
                    "material" : 1
                },
                {
                    "attributes" : {
                        "POSITION" : 11,
                        "TEXCOORD_0" : 12,
                        "NORMAL" : 13
                    },
                    "indices" : 14,
                    "material" : 2
                }
            ]
        },
        {
            "name" : "Sphere.002",
            "primitives" : [
                {
                    "attributes" : {
                        "POSITION" : 15,
                        "TEXCOORD_0" : 16,
                        "NORMAL" : 17
                    },
                    "indices" : 18,
                    "material" : 3
                }
            ]
        },
        {
            "name" : "Plane",
            "primitives" : [
                {
                    "attributes" : {
                        "POSITION" : 19,
                        "TEXCOORD_0" : 20,
                        "NORMAL" : 21
                    },
                    "indices" : 22,
                    "material" : 4
                }
            ]
        }
    ],
    "skins" : [
        {
            "inverseBindMatrices" : 6,
            "joints" : [
                17,
                1,
                0,
                3,
                2,
                5,
                4,
                7,
                6,
                8,
                9,
                10,
                11
            ],
            "name" : "Armature"
        }
    ],
    "accessors" : [
        {
            "bufferView" : 0,
            "componentType" : 5126,
            "count" : 1166,
            "max" : [
                1.9866083860397339,
                1.6249065399169922,
                -0.16990500688552856
            ],
            "min" : [
                -1.9866079092025757,
                -2.1123925762367435e-05,
                -0.3558499217033386
            ],
            "type" : "VEC3"
        },
        {
            "bufferView" : 1,
            "componentType" : 5126,
            "count" : 1166,
            "type" : "VEC2"
        },
        {
            "bufferView" : 2,
            "componentType" : 5126,
            "count" : 1166,
            "type" : "VEC3"
        },
        {
            "bufferView" : 3,
            "componentType" : 5121,
            "count" : 1166,
            "type" : "VEC4"
        },
        {
            "bufferView" : 4,
            "componentType" : 5126,
            "count" : 1166,
            "type" : "VEC4"
        },
        {
            "bufferView" : 5,
            "componentType" : 5123,
            "count" : 6048,
            "type" : "SCALAR"
        },
        {
            "bufferView" : 6,
            "componentType" : 5126,
            "count" : 13,
            "type" : "MAT4"
        },
        {
            "bufferView" : 7,
            "componentType" : 5126,
            "count" : 168,
            "max" : [
                1.000000238418579,
                1.6845074892044067,
                5.562458795793646e-07
            ],
            "min" : [
                -2.304045381151809e-07,
                -1,
                -1
            ],
            "type" : "VEC3"
        },
        {
            "bufferView" : 8,
            "componentType" : 5126,
            "count" : 168,
            "type" : "VEC2"
        },
        {
            "bufferView" : 9,
            "componentType" : 5126,
            "count" : 168,
            "type" : "VEC3"
        },
        {
            "bufferView" : 10,
            "componentType" : 5123,
            "count" : 816,
            "type" : "SCALAR"
        },
        {
            "bufferView" : 11,
            "componentType" : 5126,
            "count" : 64,
            "max" : [
                0.9608110785484314,
                1.6250033378601074,
                5.455843847812503e-07
            ],
            "min" : [
                -2.1668522265372303e-07,
                -0.9543005228042603,
                -0.11896606534719467
            ],
            "type" : "VEC3"
        },
        {
            "bufferView" : 12,
            "componentType" : 5126,
            "count" : 64,
            "type" : "VEC2"
        },
        {
            "bufferView" : 13,
            "componentType" : 5126,
            "count" : 64,
            "type" : "VEC3"
        },
        {
            "bufferView" : 14,
            "componentType" : 5123,
            "count" : 276,
            "type" : "SCALAR"
        },
        {
            "bufferView" : 15,
            "componentType" : 5126,
            "count" : 287,
            "max" : [
                0.4090512692928314,
                0.5599005222320557,
                0.29008516669273376
            ],
            "min" : [
                2.4092418016152806e-07,
                -0.25820112228393555,
                -0.5280166864395142
            ],
            "type" : "VEC3"
        },
        {
            "bufferView" : 16,
            "componentType" : 5126,
            "count" : 287,
            "type" : "VEC2"
        },
        {
            "bufferView" : 17,
            "componentType" : 5126,
            "count" : 287,
            "type" : "VEC3"
        },
        {
            "bufferView" : 18,
            "componentType" : 5123,
            "count" : 1440,
            "type" : "SCALAR"
        },
        {
            "bufferView" : 19,
            "componentType" : 5126,
            "count" : 4,
            "max" : [
                1,
                0,
                1
            ],
            "min" : [
                -1,
                0,
                -1
            ],
            "type" : "VEC3"
        },
        {
            "bufferView" : 20,
            "componentType" : 5126,
            "count" : 4,
            "type" : "VEC2"
        },
        {
            "bufferView" : 21,
            "componentType" : 5126,
            "count" : 4,
            "type" : "VEC3"
        },
        {
            "bufferView" : 22,
            "componentType" : 5123,
            "count" : 6,
            "type" : "SCALAR"
        }
    ],
    "bufferViews" : [
        {
            "buffer" : 0,
            "byteLength" : 13992,
            "byteOffset" : 0,
            "target" : 34962
        },
        {
            "buffer" : 0,
            "byteLength" : 9328,
            "byteOffset" : 13992,
            "target" : 34962
        },
        {
            "buffer" : 0,
            "byteLength" : 13992,
            "byteOffset" : 23320,
            "target" : 34962
        },
        {
            "buffer" : 0,
            "byteLength" : 4664,
            "byteOffset" : 37312,
            "target" : 34962
        },
        {
            "buffer" : 0,
            "byteLength" : 18656,
            "byteOffset" : 41976,
            "target" : 34962
        },
        {
            "buffer" : 0,
            "byteLength" : 12096,
            "byteOffset" : 60632,
            "target" : 34963
        },
        {
            "buffer" : 0,
            "byteLength" : 832,
            "byteOffset" : 72728
        },
        {
            "buffer" : 0,
            "byteLength" : 2016,
            "byteOffset" : 73560,
            "target" : 34962
        },
        {
            "buffer" : 0,
            "byteLength" : 1344,
            "byteOffset" : 75576,
            "target" : 34962
        },
        {
            "buffer" : 0,
            "byteLength" : 2016,
            "byteOffset" : 76920,
            "target" : 34962
        },
        {
            "buffer" : 0,
            "byteLength" : 1632,
            "byteOffset" : 78936,
            "target" : 34963
        },
        {
            "buffer" : 0,
            "byteLength" : 768,
            "byteOffset" : 80568,
            "target" : 34962
        },
        {
            "buffer" : 0,
            "byteLength" : 512,
            "byteOffset" : 81336,
            "target" : 34962
        },
        {
            "buffer" : 0,
            "byteLength" : 768,
            "byteOffset" : 81848,
            "target" : 34962
        },
        {
            "buffer" : 0,
            "byteLength" : 552,
            "byteOffset" : 82616,
            "target" : 34963
        },
        {
            "buffer" : 0,
            "byteLength" : 3444,
            "byteOffset" : 83168,
            "target" : 34962
        },
        {
            "buffer" : 0,
            "byteLength" : 2296,
            "byteOffset" : 86612,
            "target" : 34962
        },
        {
            "buffer" : 0,
            "byteLength" : 3444,
            "byteOffset" : 88908,
            "target" : 34962
        },
        {
            "buffer" : 0,
            "byteLength" : 2880,
            "byteOffset" : 92352,
            "target" : 34963
        },
        {
            "buffer" : 0,
            "byteLength" : 48,
            "byteOffset" : 95232,
            "target" : 34962
        },
        {
            "buffer" : 0,
            "byteLength" : 32,
            "byteOffset" : 95280,
            "target" : 34962
        },
        {
            "buffer" : 0,
            "byteLength" : 48,
            "byteOffset" : 95312,
            "target" : 34962
        },
        {
            "buffer" : 0,
            "byteLength" : 12,
            "byteOffset" : 95360,
            "target" : 34963
        }
    ],
    "buffers" : [
        {
            "byteLength" : 95372,
            "uri" : "data:application/octet-stream;base64,"
        }
    ]
}
